<svg xmlns="http://www.w3.org/2000/svg" width="512" height="512" viewBox="0 0 512 512">
  <defs>
    <radialGradient id="bg" cx="50%" cy="38%" r="72%">
      <stop offset="0" stop-color="#45206e"/>
      <stop offset="0.62" stop-color="#1b1236"/>
      <stop offset="1" stop-color="#090817"/>
    </radialGradient>
    <linearGradient id="gold" x1="0" y1="0" x2="0" y2="1">
      <stop offset="0" stop-color="#ffe58a"/>
      <stop offset="0.45" stop-color="#e9a929"/>
      <stop offset="1" stop-color="#9b4d13"/>
    </linearGradient>
    <linearGradient id="violet" x1="0" y1="0" x2="1" y2="1">
      <stop offset="0" stop-color="#e1a4ff"/>
      <stop offset="0.45" stop-color="#8d42d4"/>
      <stop offset="1" stop-color="#3d126d"/>
    </linearGradient>
    <filter id="glow" x="-40%" y="-40%" width="180%" height="180%">
      <feGaussianBlur stdDeviation="10" result="blur"/>
      <feMerge><feMergeNode in="blur"/><feMergeNode in="SourceGraphic"/></feMerge>
    </filter>
  </defs>
  <rect width="512" height="512" rx="92" fill="url(#bg)"/>
  <circle cx="256" cy="238" r="185" fill="none" stroke="#a957e8" stroke-opacity=".22" stroke-width="8"/>
  <path d="M78 112 L106 77 L138 91 L169 60 L199 82 L232 55 L256 78 L280 55 L313 82 L343 60 L374 91 L406 77 L434 112" fill="none" stroke="#7b36b6" stroke-width="7" stroke-linecap="round" opacity=".75"/>
  <g filter="url(#glow)">
    <path d="M142 214 Q144 151 196 126 L220 88 L248 120 Q256 117 264 120 L292 88 L316 126 Q368 151 370 214 L392 260 L369 273 Q358 335 311 360 L285 386 L256 371 L227 386 L201 360 Q154 335 143 273 L120 260 Z" fill="url(#violet)" stroke="#f0c1ff" stroke-width="7" stroke-linejoin="round"/>
    <path d="M175 219 Q205 183 235 211 L222 257 Q192 271 168 246 Z" fill="#120b26" stroke="#ffd96a" stroke-width="7"/>
    <path d="M337 219 Q307 183 277 211 L290 257 Q320 271 344 246 Z" fill="#120b26" stroke="#ffd96a" stroke-width="7"/>
    <circle cx="201" cy="226" r="9" fill="#fff2a1"/>
    <circle cx="311" cy="226" r="9" fill="#fff2a1"/>
  </g>
  <path d="M193 284 Q256 322 319 284 Q306 349 256 356 Q206 349 193 284Z" fill="#150b2a" stroke="#f5b94b" stroke-width="7"/>
  <path d="M222 308 L240 323 L256 307 L272 323 L290 308" fill="none" stroke="#f5b94b" stroke-width="6" stroke-linecap="round"/>
  <g transform="translate(156 345) rotate(-3 100 60)">
    <path d="M6 27 L28 5 L184 5 L204 27 L194 115 L17 115 Z" fill="url(#gold)" stroke="#ffe59a" stroke-width="7" stroke-linejoin="round"/>
    <path d="M9 28 H201 L181 55 H29 Z" fill="#ffd15a" stroke="#9b4d13" stroke-width="6"/>
    <path d="M87 8 L87 113 M117 8 L117 113" stroke="#9b4d13" stroke-width="6" opacity=".8"/>
    <path d="M91 55 H119 V84 H91 Z" fill="#5b267f" stroke="#ffe59a" stroke-width="5"/>
    <path d="M99 61 V78 M111 61 V78" stroke="#ffe59a" stroke-width="4"/>
  </g>
  <path d="M95 398 L121 420 L93 449 L144 440 L124 474 L176 437" fill="none" stroke="#ffe77b" stroke-width="9" stroke-linecap="round" stroke-linejoin="round" filter="url(#glow)"/>
  <path d="M417 398 L391 420 L419 449 L368 440 L388 474 L336 437" fill="none" stroke="#ffe77b" stroke-width="9" stroke-linecap="round" stroke-linejoin="round" filter="url(#glow)"/>
  <rect x="13" y="13" width="486" height="486" rx="82" fill="none" stroke="#d58aff" stroke-width="5" opacity=".55"/>
</svg>
